<svg width="16" height="16" viewBox="0 0 16 16" fill="none" xmlns="http://www.w3.org/2000/svg">
<path d="M8 4.66667C6.16 4.66667 4.66667 6.16 4.66667 8C4.66667 9.84 6.16 11.3333 8 11.3333C9.84 11.3333 11.3333 9.84 11.3333 8C11.3333 6.16 9.84 4.66667 8 4.66667ZM8 9.33333C7.26667 9.33333 6.66667 8.73333 6.66667 8C6.66667 7.26667 7.26667 6.66667 8 6.66667C8.73333 6.66667 9.33333 7.26667 9.33333 8C9.33333 8.73333 8.73333 9.33333 8 9.33333ZM11.3 4.7C10.9067 4.30667 10.9067 3.67333 11.3 3.28667L12.24 2.34667C12.6333 1.95333 13.2667 1.95333 13.6533 2.34667C14.0467 2.74 14.0467 3.37333 13.6533 3.76L12.7133 4.7C12.52 4.89333 12.26 4.99333 12.0067 4.99333C11.7533 4.99333 11.4933 4.89333 11.3 4.7ZM4.7 11.3C5.09333 11.6933 5.09333 12.3267 4.7 12.7133L3.76 13.6533C3.56667 13.8467 3.30667 13.9467 3.05333 13.9467C2.8 13.9467 2.54 13.8467 2.34667 13.6533C1.95333 13.26 1.95333 12.6267 2.34667 12.24L3.28667 11.3C3.68 10.9067 4.31333 10.9067 4.7 11.3ZM2.34 3.76C1.94667 3.36667 1.94667 2.73333 2.34 2.34667C2.73333 1.95333 3.36667 1.95333 3.75333 2.34667L4.69333 3.28667C5.08667 3.68 5.08667 4.31333 4.69333 4.7C4.5 4.89333 4.24 4.99333 3.98667 4.99333C3.73333 4.99333 3.47333 4.89333 3.28 4.7L2.34 3.76ZM13.6533 12.2467C14.0467 12.64 14.0467 13.2733 13.6533 13.66C13.46 13.8533 13.2 13.9533 12.9467 13.9533C12.6933 13.9533 12.4333 13.8533 12.24 13.66L11.3 12.72C10.9067 12.3267 10.9067 11.6933 11.3 11.3067C11.6933 10.9133 12.3267 10.9133 12.7133 11.3067L13.6533 12.2467ZM15.9933 8.00667C15.9933 8.56 15.5467 9.00667 14.9933 9.00667H13.66C13.1067 9.00667 12.66 8.56 12.66 8.00667C12.66 7.45333 13.1067 7.00667 13.66 7.00667H14.9933C15.5467 7.00667 15.9933 7.45333 15.9933 8.00667ZM2.33333 9H1C0.446667 9 0 8.55333 0 8C0 7.44667 0.446667 7 1 7H2.33333C2.88667 7 3.33333 7.44667 3.33333 8C3.33333 8.55333 2.88667 9 2.33333 9ZM7 2.33333V1C7 0.446667 7.44667 0 8 0C8.55333 0 9 0.446667 9 1V2.33333C9 2.88667 8.55333 3.33333 8 3.33333C7.44667 3.33333 7 2.88667 7 2.33333ZM9 13.6667V15C9 15.5533 8.55333 16 8 16C7.44667 16 7 15.5533 7 15V13.6667C7 13.1133 7.44667 12.6667 8 12.6667C8.55333 12.6667 9 13.1133 9 13.6667Z" fill="white"/>
</svg>
