<svg width="16" height="16" viewBox="0 0 16 16" fill="none" xmlns="http://www.w3.org/2000/svg">
<path d="M8.00171 16C6.83442 16.0008 5.68108 15.7462 4.62264 15.254C3.5642 14.7617 2.6263 14.0438 1.87476 13.1507C1.12322 12.2575 0.57624 11.2107 0.27221 10.0837C-0.0318205 8.95665 -0.085536 7.77676 0.114833 6.62679C0.315201 5.47682 0.764799 4.38462 1.43208 3.42685C2.09935 2.46909 2.96814 1.66894 3.97748 1.08258C4.98681 0.496215 6.11224 0.137834 7.27478 0.0325856C8.43732 -0.0726626 9.60882 0.0777718 10.707 0.473332C11.036 0.591382 11.3273 0.7955 11.5505 1.06441C11.7737 1.33332 11.9208 1.65719 11.9763 2.00225C12.0317 2.34731 11.9937 2.70094 11.866 3.02628C11.7383 3.35162 11.5257 3.63677 11.2504 3.852C7.84638 6.46333 7.85771 9.54533 11.2504 12.148C11.5257 12.3633 11.7383 12.6485 11.8659 12.9739C11.9935 13.2992 12.0315 13.6529 11.976 13.998C11.9204 14.343 11.7733 14.6669 11.55 14.9358C11.3267 15.2046 11.0354 15.4087 10.7064 15.5267C9.83807 15.8362 8.92354 15.9963 8.00171 16ZM8.00171 2C7.12956 1.99904 6.26769 2.18822 5.47612 2.55437C4.68456 2.92053 3.98233 3.45484 3.41836 4.12011C2.85438 4.78538 2.44222 5.5656 2.21058 6.40642C1.97894 7.24725 1.93339 8.12846 2.07711 8.98869C2.22082 9.84892 2.55035 10.6675 3.04273 11.3873C3.53511 12.1072 4.1785 12.7111 4.9281 13.1569C5.6777 13.6027 6.51547 13.8797 7.38307 13.9687C8.25068 14.0577 9.12724 13.9564 9.95171 13.672C5.61105 10.2953 5.62505 5.69333 9.95171 2.328C9.32338 2.11529 8.66505 2.00456 8.00171 2ZM11.2437 8.09667L12.277 8.39133L12.5717 9.42467C12.6192 9.59048 12.7194 9.73632 12.8571 9.84015C12.9948 9.94397 13.1626 10.0001 13.335 10.0001C13.5075 10.0001 13.6753 9.94397 13.813 9.84015C13.9507 9.73632 14.0509 9.59048 14.0984 9.42467L14.393 8.39133L15.4264 8.09667C15.5922 8.0492 15.738 7.94903 15.8419 7.81131C15.9457 7.67359 16.0018 7.5058 16.0018 7.33333C16.0018 7.16086 15.9457 6.99308 15.8419 6.85536C15.738 6.71764 15.5922 6.61747 15.4264 6.57L14.393 6.27533L14.0984 5.242C14.0509 5.07619 13.9507 4.93034 13.813 4.82652C13.6753 4.72269 13.5075 4.66654 13.335 4.66654C13.1626 4.66654 12.9948 4.72269 12.8571 4.82652C12.7194 4.93034 12.6192 5.07619 12.5717 5.242L12.277 6.27533L11.2437 6.57C11.0779 6.61747 10.9321 6.71764 10.8282 6.85536C10.7244 6.99308 10.6682 7.16086 10.6682 7.33333C10.6682 7.5058 10.7244 7.67359 10.8282 7.81131C10.9321 7.94903 11.0779 8.0492 11.2437 8.09667ZM14.0017 12.3333C14.0017 12.5985 14.1071 12.8529 14.2946 13.0404C14.4821 13.228 14.7365 13.3333 15.0017 13.3333C15.2669 13.3333 15.5213 13.228 15.7088 13.0404C15.8964 12.8529 16.0017 12.5985 16.0017 12.3333C16.0017 12.0681 15.8964 11.8138 15.7088 11.6262C15.5213 11.4387 15.2669 11.3333 15.0017 11.3333C14.7365 11.3333 14.4821 11.4387 14.2946 11.6262C14.1071 11.8138 14.0017 12.0681 14.0017 12.3333Z" fill="white"/>
</svg>
